<svg width="96" height="96" xmlns="http://www.w3.org/2000/svg" xmlns:xlink="http://www.w3.org/1999/xlink" overflow="hidden"><defs><clipPath id="clip0"><rect x="270" y="529" width="96" height="96"/></clipPath></defs><g clip-path="url(#clip0)" transform="translate(-270 -529)"><path d="M317.979 541C337.85 541 353.958 557.108 353.958 576.979 353.958 596.85 337.85 612.958 317.979 612.958 298.108 612.958 282 596.85 282 576.979 282.023 557.118 298.118 541.023 317.979 541M317.979 539C297.004 539 280 556.004 280 576.979 280 597.954 297.004 614.958 317.979 614.958 338.954 614.958 355.958 597.954 355.958 576.979 355.967 556.013 338.979 539.009 318.013 539 318.002 539 317.99 539 317.979 539Z" fill="#404040"/><path d="M318.979 591 316.979 591 316.979 579.327 317.979 579.327C324.697 579.328 330.143 573.882 330.144 567.164 330.145 560.446 324.699 555 317.981 554.999 311.263 554.998 305.817 560.444 305.816 567.162 305.816 567.162 305.816 567.163 305.816 567.163L303.816 567.163C303.816 559.34 310.158 552.999 317.98 552.999 325.803 552.999 332.144 559.341 332.144 567.164 332.144 574.598 326.395 580.768 318.979 581.292Z" fill="#404040"/><path d="M320 598C320 599.105 319.105 600 318 600 316.895 600 316 599.105 316 598 316 596.895 316.895 596 318 596 319.105 596 320 596.895 320 598Z" fill="#404040"/></g></svg>