<svg width="96" height="96" xmlns="http://www.w3.org/2000/svg" xmlns:xlink="http://www.w3.org/1999/xlink" overflow="hidden"><defs><clipPath id="clip0"><rect x="270" y="432" width="96" height="96"/></clipPath></defs><g clip-path="url(#clip0)" transform="translate(-270 -432)"><path d="M355.91 487.5 348.263 455 351 455C351.552 455 352 454.552 352 454 352 453.448 351.552 453 351 453L321.858 453C321.492 451.601 320.399 450.508 319 450.142L319 441C319 440.448 318.552 440 318 440 317.448 440 317 440.448 317 441L317 450.142C315.601 450.508 314.508 451.601 314.142 453L285 453C284.448 453 284 453.448 284 454 284 454.552 284.448 455 285 455L287.737 455 280.09 487.5 277 487.5 277 488.5C277 492.554 282.49 495.729 289.5 495.729 296.51 495.729 302 492.554 302 488.5L302 487.5 298.91 487.5 291.263 455 314.142 455C314.508 456.399 315.601 457.492 317 457.858L317 513 310 513C307.791 513 306 514.791 306 517L308 517C308 515.895 308.895 515 310 515L326 515C327.105 515 328 515.895 328 517L330 517C330 514.791 328.209 513 326 513L319 513 319 457.858C320.399 457.492 321.492 456.399 321.858 455L344.737 455 337.09 487.5 334 487.5 334 488.5C334 492.554 339.49 495.729 346.5 495.729 353.51 495.729 359 492.554 359 488.5L359 487.5ZM353.855 487.5 339.145 487.5 346.49 456.283C346.49 456.277 346.495 456.273 346.5 456.273 346.505 456.273 346.51 456.277 346.51 456.283ZM289.51 456.283 296.855 487.5 282.145 487.5 289.49 456.283C289.49 456.277 289.495 456.273 289.5 456.273 289.505 456.273 289.51 456.277 289.51 456.283ZM289.5 493.729C284.493 493.729 280.169 491.876 279.2 489.5L299.8 489.5C298.831 491.876 294.507 493.729 289.5 493.729ZM318 456C316.895 456 316 455.105 316 454 316 452.895 316.895 452 318 452 319.105 452 320 452.895 320 454 320 455.105 319.105 456 318 456ZM346.5 493.729C341.493 493.729 337.169 491.876 336.2 489.5L356.8 489.5C355.831 491.876 351.507 493.729 346.5 493.729Z" fill="#7F7F7F"/><path d="M294 518 342 518 342 520 294 520Z" fill="#7F7F7F"/></g></svg>